<svg width="144" height="144" viewBox="0 0 144 144" fill="none" xmlns="http://www.w3.org/2000/svg">
<path fill-rule="evenodd" clip-rule="evenodd" d="M5.72951 115.2C4.96965 115.2 4.28574 114.936 3.67791 114.408C3.14594 113.805 2.88 113.126 2.88 112.371V45.4286C2.88 45.4286 2.88 36 12.6822 36H18.0393C19.331 36 20.2808 36.3394 20.8888 37.0183C21.4966 37.6217 21.8765 38.112 22.0286 38.4891L42.089 74.1291L62.1493 38.4891C62.3773 38.112 62.7573 37.6217 63.2891 37.0183C63.8971 36.3394 64.8469 36 66.1386 36H81.2979H108.744C115.488 36 121.017 36.9051 125.33 38.7154C129.643 40.5257 132.818 43.128 134.857 46.5223C136.975 49.8411 138.033 53.8011 138.033 58.4023C138.033 61.1177 137.484 63.5314 136.386 65.6434C135.367 67.68 134.073 69.3771 132.505 70.7349C131.015 72.0926 129.603 73.0731 128.27 73.6766C131.25 75.0343 133.877 77.2594 136.151 80.352C138.504 83.4446 139.68 87.0651 139.68 91.2137C139.68 96.192 138.504 100.491 136.151 104.112C133.877 107.657 130.505 110.41 126.035 112.371C121.644 114.257 116.233 115.2 109.803 115.2H91.1001V100.491H107.45C110.822 100.491 113.371 99.5486 115.096 97.6629C116.821 95.7771 117.684 93.6274 117.684 91.2137C117.684 88.5737 116.782 86.3486 114.978 84.5383C113.253 82.728 110.744 81.8229 107.45 81.8229H91.1001V67.4537H106.392C109.607 67.4537 111.998 66.6617 113.567 65.0777C115.214 63.4183 116.037 61.3817 116.037 58.968C116.037 56.5543 115.214 54.5931 113.567 53.0846C111.998 51.5006 109.607 50.7086 106.392 50.7086H81.2979V111.429C81.2979 115.2 77.1319 115.2 77.1319 115.2H64.7708C63.935 115.2 63.2132 114.936 62.6052 114.408C62.0734 113.805 61.8074 113.126 61.8074 112.371V69.9429L49.0417 93.5897C48.6617 94.2686 48.1678 94.872 47.56 95.4C46.952 95.928 46.1162 96.192 45.0525 96.192H39.1254C38.0617 96.192 37.2259 95.928 36.6179 95.4C36.01 94.872 35.5162 94.2686 35.1362 93.5897L22.2565 69.9429V112.371C22.2565 113.126 21.9905 113.805 21.4587 114.408C20.9267 114.936 20.2429 115.2 19.4071 115.2H5.72951Z" fill="#F59E0B"/>
</svg>
